<?xml version="1.0" standalone="no"?>
<!DOCTYPE svg PUBLIC "-//W3C//DTD SVG 20010904//EN"
 "http://www.w3.org/TR/2001/REC-SVG-20010904/DTD/svg10.dtd">
<svg version="1.0" xmlns="http://www.w3.org/2000/svg"
 width="437.000000pt" height="437.000000pt" viewBox="0 0 437.000000 437.000000"
 preserveAspectRatio="xMidYMid meet">
<metadata>
Created by potrace 1.14, written by Peter Selinger 2001-2017
</metadata>
<g transform="translate(0.000000,437.000000) scale(0.100000,-0.100000)"
fill="#000000" stroke="none">
<path d="M690 3937 c0 -3 -41 -176 -91 -384 -49 -208 -92 -389 -95 -402 -3
-13 -11 -51 -19 -84 -11 -46 -11 -63 -2 -78 7 -11 15 -19 19 -19 5 0 8 -5 8
-11 0 -6 6 -16 13 -24 18 -19 34 -40 107 -135 36 -47 73 -94 83 -105 10 -11
26 -32 34 -47 9 -14 26 -31 37 -37 17 -8 226 -34 455 -56 25 -2 70 -7 100 -11
52 -7 74 -9 140 -13 23 -1 23 -3 17 -63 -6 -57 -77 -508 -91 -583 -4 -16 -8
-46 -11 -65 -2 -19 -12 -75 -20 -125 -9 -49 -18 -108 -20 -130 -3 -22 -11 -78
-19 -125 -20 -112 -63 -386 -70 -438 -2 -23 -9 -60 -14 -84 -5 -24 -12 -65
-15 -93 -4 -27 -11 -74 -17 -103 -6 -30 -9 -55 -7 -57 1 -1 27 -5 56 -9 28 -3
67 -8 85 -11 17 -2 55 -7 82 -9 28 -3 64 -7 80 -10 17 -2 57 -7 89 -10 33 -4
73 -9 90 -11 31 -4 327 -41 401 -50 22 -2 81 -9 130 -16 50 -6 104 -12 120
-14 17 -2 56 -6 88 -10 l57 -6 1 35 c1 20 2 39 3 44 2 6 17 185 21 252 3 43
15 193 20 240 2 25 7 79 10 120 3 41 8 95 10 120 3 25 7 79 10 120 5 73 9 120
20 248 3 35 8 91 10 125 4 58 6 88 20 247 7 71 11 124 21 245 3 44 8 83 10 87
2 3 19 5 37 3 17 -3 50 -7 72 -9 22 -3 65 -8 95 -11 30 -3 71 -8 90 -10 19 -2
62 -7 95 -10 33 -3 69 -7 80 -9 11 -2 52 -7 90 -10 39 -4 81 -9 95 -11 14 -2
50 -6 80 -9 l55 -7 71 68 c40 37 104 97 143 133 40 36 88 80 108 98 l36 34 1
486 1 486 -40 7 c-22 4 -69 9 -105 13 -36 3 -85 8 -110 11 -25 2 -72 7 -105
10 -33 3 -76 8 -95 10 -51 6 -315 33 -390 40 -36 3 -76 8 -90 10 -14 2 -52 7
-85 10 -33 3 -80 8 -105 10 -25 3 -70 7 -100 10 -30 4 -75 8 -100 11 -107 11
-128 13 -185 19 -33 3 -76 8 -95 11 -32 4 -68 8 -190 19 -120 11 -177 16 -197
20 -12 2 -57 7 -100 10 -43 4 -86 9 -96 11 -10 2 -52 6 -93 9 -42 4 -83 8 -92
10 -10 1 -51 6 -92 10 -41 3 -86 8 -100 10 -14 2 -54 6 -90 10 -73 6 -218 21
-392 41 -32 3 -58 4 -58 1z m310 -182 c25 -2 63 -7 85 -9 22 -3 78 -8 125 -11
47 -4 87 -8 90 -10 3 -1 41 -6 85 -9 44 -4 91 -9 105 -11 14 -2 52 -7 85 -10
33 -3 101 -10 150 -16 50 -5 115 -12 145 -15 30 -2 69 -6 85 -8 17 -3 62 -7
100 -11 39 -3 79 -8 90 -10 11 -2 61 -7 110 -10 50 -4 92 -9 95 -10 3 -2 44
-7 90 -10 47 -4 88 -9 91 -11 3 -1 45 -6 95 -9 49 -3 96 -8 104 -10 8 -2 51
-7 95 -11 44 -3 83 -8 86 -10 3 -1 46 -6 95 -9 49 -3 96 -8 104 -10 8 -2 44
-7 80 -10 75 -6 233 -23 305 -32 28 -3 62 -6 77 -6 16 0 24 -5 21 -11 -4 -6
-33 -54 -66 -106 -136 -217 -132 -212 -197 -199 -19 4 -62 10 -95 13 -134 12
-271 27 -295 31 -14 2 -56 7 -95 10 -38 3 -81 8 -95 10 -14 2 -56 7 -95 11
-90 8 -109 10 -235 24 -161 17 -170 18 -240 25 -36 3 -72 8 -80 10 -8 2 -51 7
-95 10 -44 3 -91 8 -105 10 -14 2 -74 9 -135 15 -60 6 -123 13 -140 15 -36 5
-107 12 -190 20 -33 3 -73 8 -90 10 -16 2 -61 6 -100 10 -38 4 -79 8 -91 10
-11 2 -50 6 -86 10 -59 6 -67 10 -72 31 -6 24 -85 214 -112 268 -24 49 -19 58
29 52 23 -3 62 -8 87 -11z m-123 -543 l-31 -144 -65 7 c-75 7 -124 15 -129 19
-3 3 101 472 115 521 5 15 24 -16 73 -120 l68 -140 -31 -143z m2769 -166 c-2
-145 -6 -268 -10 -274 -4 -7 -66 -3 -93 7 -2 1 -18 1 -37 1 l-33 0 2 53 c2 28
4 97 5 151 l3 99 41 56 c23 31 59 82 81 114 21 31 40 57 41 57 2 0 1 -119 0
-264z m-2491 239 c50 -6 112 -12 190 -20 33 -3 74 -8 90 -10 17 -2 57 -6 90
-10 71 -7 107 -11 235 -25 52 -6 120 -13 150 -16 30 -3 66 -7 80 -9 14 -3 54
-7 90 -10 36 -3 81 -7 100 -10 19 -2 58 -6 85 -9 28 -3 95 -10 150 -16 55 -6
120 -13 145 -15 78 -8 154 -17 180 -20 14 -2 57 -7 95 -10 39 -3 84 -8 100
-10 17 -2 55 -7 85 -10 51 -5 84 -9 180 -20 19 -2 65 -6 101 -10 l66 -7 -3
-120 c-2 -67 -6 -123 -9 -126 -3 -3 -60 0 -128 8 -67 7 -139 14 -161 16 -21 1
-55 5 -75 8 -20 3 -56 8 -81 10 -25 3 -72 8 -105 11 -60 6 -86 9 -182 20 -64
8 -64 6 -77 -155 -16 -191 -16 -190 -47 -190 -15 0 -30 -4 -33 -8 -5 -9 -12
-58 -21 -162 -3 -36 -8 -83 -10 -105 -8 -78 -15 -151 -20 -210 -6 -73 -11
-127 -25 -270 -6 -60 -13 -132 -15 -160 -3 -27 -7 -72 -10 -100 -13 -140 -26
-275 -30 -320 -26 -291 -43 -446 -49 -452 -2 -3 -47 0 -98 7 -51 6 -110 13
-130 16 -21 2 -55 6 -75 9 -21 2 -96 11 -168 20 -71 8 -143 17 -160 20 -16 2
-56 7 -87 10 -68 9 -66 -5 -38 178 11 73 22 148 24 167 5 35 7 52 26 180 6 36
12 82 15 103 7 52 12 88 41 287 27 181 29 198 38 265 3 22 8 57 11 78 3 20 7
52 9 70 3 17 10 66 16 107 6 41 13 91 16 110 2 19 8 64 14 100 18 120 18 129
7 138 -7 5 -27 10 -46 10 -18 0 -37 4 -41 9 -4 4 3 73 16 153 13 80 21 157 18
171 -5 24 -10 27 -67 33 -80 8 -238 25 -302 31 -51 5 -116 13 -170 20 -16 2
-57 7 -90 10 -51 5 -97 11 -101 14 -1 1 4 29 11 64 7 34 18 88 25 120 l12 59
51 -6 c29 -3 70 -8 92 -11z m-382 -357 c40 -2 44 -13 28 -81 l-6 -29 -22 26
c-13 14 -23 30 -23 35 0 5 -4 11 -9 13 -4 2 -12 14 -16 27 -4 14 -3 21 2 18 5
-4 26 -7 46 -9z m317 -34 c14 -2 52 -6 85 -9 33 -3 71 -8 85 -10 14 -3 52 -7
85 -10 180 -15 217 -22 211 -43 -5 -17 -11 -50 -23 -141 l-6 -43 -56 6 c-31 4
-74 9 -96 11 -22 3 -58 7 -80 10 -22 2 -65 7 -95 10 -132 14 -303 35 -306 38
-2 1 3 30 10 62 8 33 17 77 20 98 l7 38 67 -6 c37 -4 78 -9 92 -11z m1767
-193 c92 -11 195 -22 228 -26 33 -3 78 -8 100 -11 44 -5 120 -12 148 -13 15
-1 17 -13 17 -107 l0 -106 -76 7 c-41 3 -85 8 -97 10 -12 3 -47 6 -78 9 -31 3
-71 7 -90 10 -19 3 -56 8 -84 10 -126 13 -183 19 -225 25 l-45 6 2 50 c4 88
14 155 23 155 5 0 84 -9 177 -19z m682 -88 c-8 -10 -26 -31 -41 -47 l-28 -30
0 47 0 47 41 0 c38 0 40 -1 28 -17z m-1910 -208 c-7 -47 -15 -88 -19 -90 -3
-2 1 39 9 90 8 52 17 93 19 90 2 -2 -2 -43 -9 -90z m-17 -130 c-2 -14 -8 -23
-12 -20 -10 6 -1 45 10 45 4 0 5 -11 2 -25z m-17 -99 c-4 -31 -10 -56 -14 -56
-4 0 -3 27 3 60 12 74 20 71 11 -4z m-15 -104 c-4 -16 -11 -57 -15 -91 -4 -34
-9 -60 -12 -57 -8 8 18 176 27 176 5 0 5 -13 0 -28z m-40 -267 c-7 -47 -16
-87 -20 -90 -4 -3 -4 12 0 33 8 36 18 107 20 147 1 12 4 15 7 7 3 -7 0 -51 -7
-97z m-20 -135 c0 -16 -4 -30 -8 -30 -5 0 -7 14 -4 30 2 17 6 30 8 30 2 0 4
-13 4 -30z m-21 -134 c-7 -47 -14 -84 -17 -81 -3 3 0 43 8 91 7 47 14 83 17
81 2 -3 -1 -44 -8 -91z m-19 -139 c-5 -17 -14 -71 -21 -119 -7 -49 -15 -88
-18 -88 -3 0 3 56 14 124 10 69 22 123 26 120 4 -2 4 -19 -1 -37z m-46 -294
c-7 -43 -13 -84 -13 -90 -1 -7 -6 -13 -12 -13 -5 0 -8 4 -5 8 5 8 7 18 21 112
7 42 12 60 19 60 1 0 -3 -35 -10 -77z m-24 -153 l-8 -35 -1 31 c-1 17 2 34 6
37 11 12 12 3 3 -33z m-8 -75 c-7 -39 -18 -38 -14 1 2 18 8 32 12 29 4 -2 5
-16 2 -30z"/>
</g>
</svg>
